<?xml version="1.0" encoding="UTF-8" standalone="no"?>
<!-- Created with Inkscape (http://www.inkscape.org/) -->

<svg
   xmlns:dc="http://purl.org/dc/elements/1.1/"
   xmlns:cc="http://creativecommons.org/ns#"
   xmlns:rdf="http://www.w3.org/1999/02/22-rdf-syntax-ns#"
   xmlns:svg="http://www.w3.org/2000/svg"
   xmlns="http://www.w3.org/2000/svg"
   xmlns:sodipodi="http://sodipodi.sourceforge.net/DTD/sodipodi-0.dtd"
   xmlns:inkscape="http://www.inkscape.org/namespaces/inkscape"
   width="500.82584mm"
   height="472.44775mm"
   viewBox="0 0 500.82584 472.44775"
   version="1.1"
   id="svg8"
   inkscape:version="0.92.3 (2405546, 2018-03-11)"
   sodipodi:docname="ico_search.svg">
  <defs
     id="defs2" />
  <sodipodi:namedview
     id="base"
     pagecolor="#ffffff"
     bordercolor="#666666"
     borderopacity="1.0"
     inkscape:pageopacity="0.0"
     inkscape:pageshadow="2"
     inkscape:zoom="0.35"
     inkscape:cx="164.09598"
     inkscape:cy="828.82796"
     inkscape:document-units="mm"
     inkscape:current-layer="layer1"
     showgrid="false"
     fit-margin-top="0"
     fit-margin-left="0"
     fit-margin-right="0"
     fit-margin-bottom="0"
     inkscape:window-width="1920"
     inkscape:window-height="1001"
     inkscape:window-x="-9"
     inkscape:window-y="-9"
     inkscape:window-maximized="1" />
  <metadata
     id="metadata5">
    <rdf:RDF>
      <cc:Work
         rdf:about="">
        <dc:format>image/svg+xml</dc:format>
        <dc:type
           rdf:resource="http://purl.org/dc/dcmitype/StillImage" />
        <dc:title></dc:title>
      </cc:Work>
    </rdf:RDF>
  </metadata>
  <g
     inkscape:label="Layer 1"
     inkscape:groupmode="layer"
     id="layer1"
     transform="translate(-36.55037,274.00915)">
    <g
       id="g839">
      <path
         inkscape:connector-curvature="0"
         id="path822"
         d="M 211.32732,-274.00915 A 174.77696,174.77696 0 0 0 36.55037,-99.232206 174.77696,174.77696 0 0 0 211.32732,75.544743 174.77696,174.77696 0 0 0 386.10426,-99.232206 174.77696,174.77696 0 0 0 211.32732,-274.00915 Z m 0,40.85695 a 133.92001,133.92001 0 0 1 133.91999,133.919994 133.92001,133.92001 0 0 1 -133.91999,133.92 133.92001,133.92001 0 0 1 -133.920001,-133.92 A 133.92001,133.92001 0 0 1 211.32732,-233.1522 Z"
         style="fill:#000000;fill-rule:evenodd;stroke-width:0.52283704" />
      <rect
         ry="9.5"
         transform="matrix(0.72537914,0.68834955,-0.68826458,0.72545976,0,0)"
         y="-256.8429"
         x="240.96896"
         height="58.964291"
         width="261.55704"
         id="rect827"
         style="opacity:1;fill:#000000;fill-opacity:1;stroke:#000000;stroke-width:0;stroke-linecap:round;stroke-linejoin:round;stroke-miterlimit:4;stroke-dasharray:none" />
    </g>
  </g>
</svg>
